<svg xmlns="http://www.w3.org/2000/svg" viewBox="0 0 95 95"><title>desarrollo</title><g id="Layer_2" data-name="Layer 2"><g id="Layer_1-2" data-name="Layer 1"><path d="M86,38.5A9,9,0,0,0,77.4,45H61.6a14.45,14.45,0,0,0-2.4-5.7L70.4,28.1a8.93,8.93,0,1,0-4.7-7.8,8,8,0,0,0,1.2,4.3L55.7,35.8A14.45,14.45,0,0,0,50,33.4V17.6a9,9,0,1,0-5,0V33.4a14.45,14.45,0,0,0-5.7,2.4L28.1,24.6a9,9,0,1,0-16.8-4.3,9,9,0,0,0,9,9,8,8,0,0,0,4.3-1.2L35.8,39.3A14.45,14.45,0,0,0,33.4,45H17.6a9,9,0,1,0,0,5H33.4a14.45,14.45,0,0,0,2.4,5.7L24.6,66.9a9,9,0,1,0-4.3,16.8,9,9,0,0,0,9-9,8,8,0,0,0-1.2-4.3L39.3,59.2A14.45,14.45,0,0,0,45,61.6V77.4a9,9,0,1,0,5,0V61.6a13.86,13.86,0,0,0,5.7-2.4L66.9,70.4a8.93,8.93,0,1,0,7.8-4.7,8,8,0,0,0-4.3,1.2L59.2,55.7A14.45,14.45,0,0,0,61.6,50H77.4A9,9,0,1,0,86,38.5Z" style="fill:#19ead5"/></g></g></svg>