<svg xmlns="http://www.w3.org/2000/svg" viewBox="0 0 26 30"><title>genero</title><g id="Layer_2" data-name="Layer 2"><g id="Layer_1-2" data-name="Layer 1"><path d="M7,22a7,7,0,1,1,7-7A7,7,0,0,1,7,22ZM7,10a5,5,0,1,0,5,5A5,5,0,0,0,7,10Z" style="fill:#ef476f"/><path d="M19,22a7,7,0,1,1,7-7A7,7,0,0,1,19,22Zm0-12a5,5,0,1,0,5,5A5,5,0,0,0,19,10Z" style="fill:#ef476f"/><path d="M7,30a1,1,0,0,1-1-1V21a1,1,0,0,1,2,0v8A1,1,0,0,1,7,30Z" style="fill:#ef476f"/><path d="M10,27H4a1,1,0,0,1,0-2h6a1,1,0,0,1,0,2Z" style="fill:#ef476f"/><path d="M19,10a1,1,0,0,1-1-1V1a1,1,0,0,1,2,0V9A1,1,0,0,1,19,10Z" style="fill:#ef476f"/><path d="M21.83,4.83a1,1,0,0,1-.71-.29L18.29,1.71A1,1,0,0,1,19.71.29l2.83,2.83a1,1,0,0,1,0,1.42A1,1,0,0,1,21.83,4.83Z" style="fill:#ef476f"/><path d="M16,4.83a1,1,0,0,1-.71-.29,1,1,0,0,1,0-1.42L18.12.29a1,1,0,0,1,1.42,1.42L16.71,4.54A1,1,0,0,1,16,4.83Z" style="fill:#ef476f"/></g></g></svg>