<svg xmlns="http://www.w3.org/2000/svg" viewBox="0 0 744.1 650.08"><title>poblacion</title><g id="Layer_2" data-name="Layer 2"><g id="Layer_1-2" data-name="Layer 1"><path d="M316.57,174.83h111A47.63,47.63,0,0,1,475,222.35V345a47.67,47.67,0,0,1-31.47,44.74L419.11,625.26c-1.4,13.62-15.84,24.82-35.25,24.82H360.18c-19.35,0-33.8-11.2-35.25-24.82L300.47,389.65A47.65,47.65,0,0,1,269.05,345V222.35a47.63,47.63,0,0,1,47.52-47.52ZM121,0A44.38,44.38,0,1,1,76.62,44.38,44.38,44.38,0,0,1,121,0ZM617.67,0a44.38,44.38,0,1,1-44.38,44.38A44.38,44.38,0,0,1,617.67,0ZM528.4,80.29A44.38,44.38,0,1,1,484,124.67,44.38,44.38,0,0,1,528.4,80.29Zm-320.86,0a44.38,44.38,0,1,1-44.38,44.38A44.38,44.38,0,0,1,207.54,80.29Zm409.87,189.9h88.71a38.08,38.08,0,0,1,38,38v98a38.1,38.1,0,0,1-25.18,35.71L699.36,630.27c-1.09,10.88-12.64,19.81-28.12,19.81H652.3c-15.48,0-27-8.93-28.18-19.81L604.57,441.92a38,38,0,0,1-25.13-35.71v-98a38.08,38.08,0,0,1,38-38Zm44.33-137.57a61.46,61.46,0,1,1-61.46,61.45,61.44,61.44,0,0,1,61.46-61.45ZM38,270.19h88.71a38.08,38.08,0,0,1,38,38v98a38.1,38.1,0,0,1-25.18,35.71L119.92,630.27c-1.08,10.88-12.64,19.81-28.12,19.81H72.86c-15.48,0-27-8.93-28.18-19.81L25.13,441.92A38,38,0,0,1,0,406.21v-98a38.08,38.08,0,0,1,38-38ZM82.3,132.62a61.46,61.46,0,1,1-61.46,61.45A61.44,61.44,0,0,1,82.3,132.62ZM372.05,2.73a76.89,76.89,0,1,1-76.89,76.89A76.88,76.88,0,0,1,372.05,2.73Z" style="fill:#ffe316;fill-rule:evenodd"/></g></g></svg>