<svg xmlns="http://www.w3.org/2000/svg" viewBox="0 0 78.51 88.75"><title>salud</title><g id="Layer_2" data-name="Layer 2"><g id="Layer_1-2" data-name="Layer 1"><path d="M1,88.75H54.19a1,1,0,0,0,1-1V67.29l5.42,1.78a1.12,1.12,0,0,0,.31.05,1,1,0,0,0,.95-.69l4-12.25h0L76.57,23.63h0l1.88-5.74a1,1,0,0,0-.63-1.26L27.28.05A1,1,0,0,0,26,.69L24.14,6.42h0l-4.27,13h0L17.73,26h0l-2.5,7.6H1a1,1,0,0,0-1,1V87.75A1,1,0,0,0,1,88.75ZM75,22.06l-4.06-1.33,1.26-3.84,4,1.33ZM27.61,2.26l4.05,1.33L30.4,7.43l-4-1.33ZM19.32,27.53l5,1.64a1.18,1.18,0,0,0,.31,0,1,1,0,0,0,.31-1.95l-5-1.64L21.45,21l5,1.64a1.12,1.12,0,0,0,.31.05,1,1,0,0,0,.31-1.95l-5-1.64,1.51-4.61,5,1.64a1.19,1.19,0,0,0,.32.05,1,1,0,0,0,.31-1.95l-5-1.64L25.73,8l5,1.64a1.18,1.18,0,0,0,.31,0A1,1,0,0,0,32,9l1.57-4.78L38.1,5.7l-1.57,4.79a1,1,0,0,0,.64,1.26.84.84,0,0,0,.31.05,1,1,0,0,0,1-.69L40,6.33l4.54,1.49L43,12.6a1,1,0,0,0,.64,1.27,1.12,1.12,0,0,0,.31.05,1,1,0,0,0,.95-.69l1.57-4.79L51,9.93l-1.57,4.79A1,1,0,0,0,50,16a1.19,1.19,0,0,0,.32.05,1,1,0,0,0,1-.69l1.57-4.79L57.41,12l-1.57,4.79a1,1,0,0,0,.64,1.26,1.18,1.18,0,0,0,.31.05,1,1,0,0,0,1-.69l1.57-4.78,4.54,1.49-1.57,4.78a1,1,0,0,0,.64,1.26.84.84,0,0,0,.31.05,1,1,0,0,0,1-.68l1.57-4.79,4.54,1.49-1.57,4.78a1,1,0,0,0,.63,1.27l5,1.64-1.51,4.61-5-1.64a1,1,0,1,0-.62,1.9l5,1.64-1.51,4.61-5-1.64a1,1,0,0,0-1.26.64,1,1,0,0,0,.64,1.26l5,1.64-1.52,4.61-5-1.64a1,1,0,0,0-.62,1.9l5,1.64L66.44,48.1l-5-1.64a1,1,0,0,0-1.26.64,1,1,0,0,0,.64,1.26l5,1.64L64.3,54.61,59.3,53a1,1,0,1,0-.63,1.9l5,1.64-1.52,4.61-5-1.64a1,1,0,0,0-.62,1.9l5,1.64-1.26,3.84-5.1-1.68V47.77A17.24,17.24,0,0,0,60.43,40a1,1,0,0,0-1.9-.62A15.29,15.29,0,0,1,55.18,45V34.56a1,1,0,0,0-1-1H34a10.26,10.26,0,0,1,2.52-5.66,1,1,0,0,0-.09-1.42,1,1,0,0,0-1.41.09,12.25,12.25,0,0,0-3,7h-3.4a15,15,0,0,1,.73-3.79A15.36,15.36,0,0,1,48.73,20a1,1,0,1,0,.63-1.9A17.33,17.33,0,0,0,26.63,33.56H17.34Zm-13,8v5a1,1,0,0,0,2,0v-5H13v5a1,1,0,0,0,2,0v-5h4.78V40a1,1,0,0,0,2,0V35.56h4.77v3.65a1,1,0,0,0,2,0V35.56h4.78V40a1,1,0,0,0,2,0V35.56h4.77v5a1,1,0,1,0,2,0v-5h4.78v5a1,1,0,1,0,2,0v-5h4.27V46.45H47.92a1,1,0,0,0,0,2h5.27V53.3H47.92a1,1,0,0,0,0,2h5.27v4.85H49.44a1,1,0,0,0,0,2h3.75V67H48.38a1,1,0,1,0,0,2h4.81v4.86H47.92a1,1,0,0,0,0,2h5.27v4.85H47.92a1,1,0,0,0,0,2h5.27v4h-11v-5a1,1,0,0,0-2,0v5H35.37v-5a1,1,0,0,0-2,0v5H28.59v-5a1,1,0,0,0-2,0v5H21.82v-5a1,1,0,0,0-2,0v5H15v-5a1,1,0,0,0-2,0v5H8.27v-5a1,1,0,0,0-2,0v5H2V75.86H7.27a1,1,0,0,0,0-2H2V69H6.94a1,1,0,0,0,0-2H2V62.15H5.88a1,1,0,1,0,0-2H2V55.3H6.63a1,1,0,1,0,0-2H2V48.45H7.27a1,1,0,0,0,0-2H2V35.56Z" style="fill:#19ead5"/></g></g></svg>