<svg xmlns="http://www.w3.org/2000/svg" viewBox="0 0 78 78"><title>todos</title><g id="Layer_2" data-name="Layer 2"><g id="Layer_1-2" data-name="Layer 1"><polygon points="62.38 0 73.67 8.57 74.82 7.42 65.05 0 62.38 0" style="fill:none"/><polygon points="8.11 0 50.25 31.99 51.4 30.84 10.78 0 8.11 0" style="fill:none"/><polygon points="21.68 0 56.1 26.13 57.26 24.98 24.35 0 21.68 0" style="fill:none"/><polygon points="48.81 0 67.81 14.43 68.97 13.27 51.48 0 48.81 0" style="fill:none"/><polygon points="35.24 0 61.96 20.28 63.11 19.13 37.92 0 35.24 0" style="fill:none"/><polygon points="30 47.51 48 61.17 48 59.15 30 45.48 30 47.51" style="fill:none"/><polygon points="30 57.81 48 71.47 48 69.44 30 55.78 30 57.81" style="fill:none"/><path d="M76.45.38l.68.52A2.86,2.86,0,0,0,76.45.38Z" style="fill:none"/><path d="M42.87,77.12A3,3,0,0,0,45,78a2.54,2.54,0,0,0,.61-.07l-8-6.06Z" style="fill:none"/><path d="M30,36v1.21L48,50.88v-2L29.83,35.06A3.61,3.61,0,0,1,30,36Z" style="fill:none"/><path d="M.34,4.4,48,40.58v-2L.11,2.2A3,3,0,0,0,.34,4.4Z" style="fill:none"/><path d="M75,0h-10l9.77,7.42,2.3-2.3a3,3,0,0,0,.65-3.27A3.12,3.12,0,0,0,77.13.9L76.45.38A3,3,0,0,0,75,0Z" style="fill:#19ead5"/><polygon points="51.48 0 68.97 13.27 73.67 8.57 62.38 0 51.48 0" style="fill:#ffe316"/><polygon points="37.92 0 63.11 19.13 67.81 14.43 48.81 0 37.92 0" style="fill:#ef476f"/><polygon points="24.35 0 57.26 24.98 61.96 20.28 35.24 0 24.35 0" style="fill:#19ead5"/><polygon points="10.78 0 51.4 30.84 56.1 26.13 21.68 0 10.78 0" style="fill:#ffe316"/><path d="M3,0A3,3,0,0,0,.22,1.85c0,.12-.08.23-.11.35L48,38.55V36a5.45,5.45,0,0,1,1.24-3l1-1L8.11,0Z" style="fill:#ef476f"/><path d="M.87,5.12,28.75,33a5.41,5.41,0,0,1,1.08,2.06L48,48.85V40.58L.34,4.4A3.11,3.11,0,0,0,.87,5.12Z" style="fill:#19ead5"/><polygon points="30 45.48 48 59.15 48 50.88 30 37.21 30 45.48" style="fill:#ffe316"/><polygon points="30 55.78 48 69.44 48 61.17 30 47.51 30 55.78" style="fill:#ef476f"/><path d="M30,63a3,3,0,0,0,.87,2.12l6.76,6.75,8,6.06a2.49,2.49,0,0,0,.53-.16A3,3,0,0,0,48,75V71.47L30,57.81Z" style="fill:#19ead5"/></g></g></svg>